<?xml version="1.0" standalone="no"?>
<!DOCTYPE svg PUBLIC "-//W3C//DTD SVG 20010904//EN"
 "http://www.w3.org/TR/2001/REC-SVG-20010904/DTD/svg10.dtd">
<svg version="1.0" xmlns="http://www.w3.org/2000/svg"
 width="174.000000pt" height="187.000000pt" viewBox="0 0 174.000000 187.000000"
 preserveAspectRatio="xMidYMid meet">

<g transform="translate(0.000000,187.000000) scale(0.100000,-0.100000)"
fill="#000000" stroke="none">
<path d="M725 1786 c-76 -19 -123 -45 -184 -102 l-56 -52 60 5 c80 7 159 -10
248 -55 63 -31 102 -65 319 -280 251 -249 288 -295 288 -360 0 -56 -20 -86
-128 -195 l-107 -107 91 -90 90 -91 125 128 c166 169 184 205 184 358 0 163 0
162 -337 501 -298 299 -328 323 -439 344 -64 12 -91 12 -154 -4z"/>
<path d="M249 1393 c-125 -125 -232 -238 -238 -250 -7 -13 -11 -91 -11 -206
l0 -185 39 -49 c21 -26 153 -161 292 -299 307 -303 316 -309 479 -309 95 0
110 3 163 28 32 16 85 54 118 85 l60 55 87 -86 87 -87 149 0 148 0 -404 410
-403 410 -130 -130 -130 -130 75 -75 74 -75 53 52 53 52 90 -89 91 -90 -54
-52 c-58 -56 -99 -70 -164 -58 -33 6 -75 43 -301 268 -145 144 -270 274 -278
289 -19 36 -18 102 2 144 9 19 131 147 271 284 l255 249 -34 21 c-41 25 -87
39 -158 46 l-55 6 -226 -229z"/>
</g>
</svg>
